<svg id="e1b1e002-d924-4d22-bacb-5c9d93bf569d" xmlns="http://www.w3.org/2000/svg" xmlns:xlink="http://www.w3.org/1999/xlink" viewBox="0 0 653.07 427.29"><defs><style>.cls-1,.cls-5{fill:#6c63ff;}.cls-1,.cls-13,.cls-3{opacity:0.1;}.cls-1,.cls-3,.cls-6,.cls-9{isolation:isolate;}.cls-2{fill:#f86d70;}.cls-4{fill:#3f3d56;}.cls-6{opacity:0.15;}.cls-7{fill:#fec2be;}.cls-8{fill:#4c4981;}.cls-9{opacity:0.05;}.cls-10{fill:#ca8496;}.cls-11{fill:#fff;}.cls-12{fill:#9a5e7f;}.cls-14{fill:#35323e;}.cls-15{fill:#464353;}.cls-16{fill:url(#Dégradé_sans_nom_2);}.cls-17{fill:#a1616a;}.cls-18{fill:#67647e;}.cls-19{fill:#444053;}.cls-20{fill:#f3f5f9;}.cls-21{fill:none;}</style><linearGradient id="Dégradé_sans_nom_2" x1="-1002.42" y1="-323.95" x2="-1002.42" y2="-63.54" gradientTransform="matrix(1, 0, 0, -1, 1199.58, 74.15)" gradientUnits="userSpaceOnUse"><stop offset="0" stop-color="gray" stop-opacity="0.25"/><stop offset="0.54" stop-color="gray" stop-opacity="0.12"/><stop offset="1" stop-color="gray" stop-opacity="0.1"/></linearGradient></defs><title>undraw_gifts</title><ellipse class="cls-1" cx="326.54" cy="375.93" rx="326.54" ry="51.36"/><polygon class="cls-2" points="541.21 276.04 541.21 311.64 531.8 330.63 531.8 330.63 531.5 331.24 506.58 329.59 497.01 328.95 474.78 327.49 474.78 284.9 497.01 285.53 506.95 285.81 532.1 286.52 541.21 276.04"/><polygon class="cls-3" points="541.21 278.14 541.21 311.64 538.91 316.28 538.91 316.28 536.55 321.04 536.55 321.04 531.8 330.63 532.33 295.03 532.43 287.85 536.96 282.85 536.96 282.85 538.93 280.67 541.21 278.14"/><polygon class="cls-2" points="542.48 266.59 542.48 279.02 541.21 281.06 538.92 284.7 536.9 287.92 532.43 295.04 532.33 295.03 472.82 291.97 472.82 279.71 472.97 279.54 480.07 271.85 482.64 269.07 487.3 264.04 542.48 266.59"/><polygon class="cls-4" points="538.93 272.31 538.93 280.67 538.92 284.7 538.91 316.28 538.91 316.28 536.55 321.04 536.9 287.92 536.96 282.85 536.96 282.85 537.04 275.37 480.07 271.85 482.64 269.07 538.93 272.31"/><polygon class="cls-4" points="510.97 272.72 506.98 281.39 506.95 285.81 506.58 329.59 497.01 328.95 497.01 280.81 502.12 272.72 510.97 272.72"/><path class="cls-4" d="M497.83,290.19a12.67,12.67,0,0,1-7.14.25,2.78,2.78,0,0,1-1.25-.59,3.29,3.29,0,0,1-.78-1.53,12.4,12.4,0,0,1-.68-3.67,4.08,4.08,0,0,1,1.53-3.28,3.54,3.54,0,0,0,.58-.44,2.43,2.43,0,0,0,.45-.91c.7-2.08,2-4.28,4.22-4.62,2-.3,3.82,1.09,5.37,2.41l3.39,2.88a5.34,5.34,0,0,1,10-.13,18.78,18.78,0,0,1,7.53-5.17,2.33,2.33,0,0,1,2-.08,2.19,2.19,0,0,1,.78,1.06,16,16,0,0,1,1.47,6.42,1.11,1.11,0,0,1,1.31.45,2.91,2.91,0,0,1,.43,1.41,20.1,20.1,0,0,1,.14,2.33,3.53,3.53,0,0,1-.59,2.34,3.86,3.86,0,0,1-2.91.91,1.18,1.18,0,0,1-.31,1.75,3.38,3.38,0,0,1-2,.38c-2.63,0-5.43-.1-7.62-1.55-.87-.59-1.59-1.35-2.46-1.93-2.13-1.41-4.8-1.47-7.26-1.35C501.71,287.64,499.94,289.47,497.83,290.19Z" transform="translate(0 -16.88)"/><path class="cls-4" d="M497.35,289.61s-22,3.06-25.05,16.34l4.61-.68,3.23,5.79s3.41-12.94,13.46-16,13.63-3.57,13.63-3.57,7,1.69,13.28,22l3.58-4.94,6.3,1.36s-4.6-15.84-17-20.27Z" transform="translate(0 -16.88)"/><polygon class="cls-5" points="510.5 289.97 510.5 338.06 497.79 363.7 497.79 363.71 497.39 364.52 463.73 362.3 450.79 361.44 420.76 359.45 420.76 301.93 450.79 302.78 464.22 303.16 498.19 304.12 510.5 289.97"/><polygon class="cls-5" points="512.23 277.19 512.23 293.99 510.5 296.74 507.42 301.65 504.69 306 498.65 315.62 498.51 315.61 418.12 311.48 418.12 294.91 418.32 294.69 427.92 284.31 431.39 280.54 437.68 273.74 512.23 277.19"/><polygon class="cls-4" points="507.43 284.93 507.42 296.21 507.42 301.65 507.4 344.32 507.4 344.33 504.21 350.75 504.69 306 504.76 299.16 504.76 299.15 504.87 289.05 427.92 284.31 431.39 280.54 507.43 284.93"/><polygon class="cls-4" points="469.66 285.48 464.27 297.19 464.22 303.16 463.73 362.3 450.79 361.44 450.79 296.41 457.69 285.48 469.66 285.48"/><path class="cls-4" d="M451.91,303.15a17.14,17.14,0,0,1-9.65.34,3.91,3.91,0,0,1-1.69-.78,4.43,4.43,0,0,1-1.05-2.08,16.42,16.42,0,0,1-.92-5,5.54,5.54,0,0,1,2.06-4.43,5.53,5.53,0,0,0,.79-.58,3.17,3.17,0,0,0,.58-1.23c.94-2.82,2.77-5.79,5.7-6.24,2.7-.41,5.17,1.48,7.25,3.25l4.57,3.89a7.22,7.22,0,0,1,13.46-.18,25.61,25.61,0,0,1,10.17-7,3.12,3.12,0,0,1,2.68-.11,3,3,0,0,1,1.06,1.43,22,22,0,0,1,2,8.67,1.53,1.53,0,0,1,1.75.58,4.06,4.06,0,0,1,.58,1.92,25.33,25.33,0,0,1,.19,3.14,4.76,4.76,0,0,1-.83,3.16c-.93,1.08-2.55,1.2-4,1.23a1.6,1.6,0,0,1-.41,2.37,4.61,4.61,0,0,1-2.68.52c-3.56,0-7.34-.14-10.3-2.12-1.17-.77-2.15-1.81-3.32-2.59-2.87-1.9-6.48-2-9.8-1.83C457.14,299.7,454.76,302.19,451.91,303.15Z" transform="translate(0 -16.88)"/><path class="cls-4" d="M451.25,302.36s-29.68,4.14-33.85,22.09l6.22-.92,4.37,7.83s4.6-17.51,18.18-21.63,18.41-4.84,18.41-4.84,9.43,2.3,17.94,29.69l4.83-6.68,8.54,1.84s-6.21-21.4-23-27.38Z" transform="translate(0 -16.88)"/><polygon class="cls-4" points="558.67 313.86 558.67 343.62 550.81 359.5 550.81 359.5 550.55 360 529.73 358.62 521.72 358.09 503.14 356.86 503.14 321.26 521.72 321.78 530.03 322.01 551.06 322.61 558.67 313.86"/><polygon class="cls-3" points="558.67 315.61 558.67 343.62 556.75 347.5 556.75 347.5 554.78 351.47 554.78 351.48 550.81 359.5 551.25 329.73 551.34 323.72 555.12 319.54 555.12 319.54 556.77 317.72 558.67 315.61"/><polygon class="cls-4" points="559.74 305.95 559.74 316.35 558.67 318.05 556.76 321.09 555.08 323.78 551.34 329.73 551.25 329.73 501.5 327.17 501.5 316.91 501.62 316.78 507.56 310.35 509.71 308.02 513.6 303.81 559.74 305.95"/><polygon class="cls-6" points="559.74 305.95 559.74 316.35 551.34 329.73 551.34 319.48 559.74 305.95"/><polygon class="cls-5" points="556.77 310.73 556.77 317.72 556.76 321.09 556.75 347.5 556.75 347.5 554.78 351.47 555.08 323.78 555.12 319.54 555.12 319.54 555.19 313.28 507.56 310.35 509.71 308.02 556.77 310.73"/><polygon class="cls-5" points="533.4 311.08 530.06 318.33 530.03 322.01 529.73 358.62 521.72 358.09 521.72 317.84 525.99 311.08 533.4 311.08"/><path class="cls-5" d="M522.41,328.45a10.64,10.64,0,0,1-6,.21,2.54,2.54,0,0,1-1.05-.49,2.79,2.79,0,0,1-.65-1.28,10.11,10.11,0,0,1-.58-3.07,3.41,3.41,0,0,1,1.28-2.74,3.41,3.41,0,0,0,.48-.37,2,2,0,0,0,.38-.76c.58-1.75,1.71-3.58,3.53-3.86,1.67-.25,3.2.91,4.49,2l2.83,2.41a4.45,4.45,0,0,1,8.32-.1,15.85,15.85,0,0,1,6.3-4.32,2,2,0,0,1,1.65-.07,1.78,1.78,0,0,1,.66.89,13.42,13.42,0,0,1,1.23,5.36.94.94,0,0,1,1.09.38,2.52,2.52,0,0,1,.37,1.17,17.88,17.88,0,0,1,.11,1.94,2.93,2.93,0,0,1-.52,1.95,3.2,3.2,0,0,1-2.46.77,1,1,0,0,1-.15,1.39l-.1.07a2.81,2.81,0,0,1-1.66.32c-2.2,0-4.54-.08-6.38-1.3-.72-.48-1.33-1.12-2.05-1.61-1.75-1.17-4-1.23-6.06-1.13C525.65,326.31,524.18,327.85,522.41,328.45Z" transform="translate(0 -16.88)"/><path class="cls-5" d="M522,328s-18.37,2.56-20.93,13.67l3.85-.58,2.7,4.84s2.85-10.82,11.25-13.38a90.16,90.16,0,0,1,11.39-3s5.84,1.42,11.09,18.36l3-4.12,5.25,1.16s-3.85-13.24-14.24-16.92Z" transform="translate(0 -16.88)"/><path class="cls-7" d="M338.83,188.09c4.8,1.82,16,2,20.93,2h2.44l3.18-6.47-3.18-5.4s-2.92-.8-6.8-1.5c-5.72-1-13.54-1.84-17.27.48C331.87,181.08,332.57,185.72,338.83,188.09Z" transform="translate(0 -16.88)"/><path class="cls-3" d="M359.76,190.11h2.44l3.18-6.47-3.18-5.4s-2.92-.8-6.8-1.5C358.55,179,366.11,184.05,359.76,190.11Z" transform="translate(0 -16.88)"/><path class="cls-8" d="M412.44,110.61,411,109s-7.23,11.44-8,15.76-1.75,9.28-1.75,9.28-1.8,5.61-3,8.09-2.26,4.86-2.37,5.94.44,3.45-1.83,5-2.81,5.61-2.81,5.61-8.17,8-12.52,8.2-16.73,2.38-16.3,4.54-5.18,3.45-7.44,4,14.59,7,4.75,15.32c0,0,6.25,1.3,6.9,2.81s7.23-.86,7.23-.86,1.41-3.35,6.27-3.56,7.33-2.38,7.33-2.7,4.86-3,7.56-3.78,6.26-1.08,6.37-1.83,16.18-70.15,16.18-70.15Z" transform="translate(0 -16.88)"/><path class="cls-9" d="M412.44,110.61,411,109s-7.23,11.44-8,15.76-1.75,9.28-1.75,9.28-1.8,5.61-3,8.09-2.26,4.86-2.37,5.94.44,3.45-1.83,5-2.81,5.61-2.81,5.61-8.17,8-12.52,8.2-16.73,2.38-16.3,4.54-5.18,3.45-7.44,4,14.59,7,4.75,15.32c0,0,6.25,1.3,6.9,2.81s7.23-.86,7.23-.86,1.41-3.35,6.27-3.56,7.33-2.38,7.33-2.7,4.86-3,7.56-3.78,6.26-1.08,6.37-1.83,16.18-70.15,16.18-70.15Z" transform="translate(0 -16.88)"/><path class="cls-10" d="M429.26,410.09c14.24,2.68,16.83-8.25,16.83-8.25s1.75-9.71,2.43-10.44a1.21,1.21,0,0,0,.11-.93h0a12.59,12.59,0,0,0-2.05-4.57c-.9-1.06-.17-5.43-.17-5.43l-16.51-4.21a24.38,24.38,0,0,0-1.61,4.86c-.16,1.53-2.6,8.5-2.34,9.47s-1.05,4-1.21,5.5-2.18,3.81-2.34,4.62a18.79,18.79,0,0,1-.89,2.13,20.66,20.66,0,0,0-1.05,3.29C419.61,409.53,429.26,410.09,429.26,410.09Z" transform="translate(0 -16.88)"/><path class="cls-3" d="M429.26,410.09c14.24,2.68,16.83-8.25,16.83-8.25s1.75-9.71,2.43-10.44a1.21,1.21,0,0,0,.11-.93l-3.43,9.83s-2.83,5.91-13.35,5c-6-.5-8.94-1.62-10.37-2.48a20.66,20.66,0,0,0-1.05,3.29C419.61,409.53,429.26,410.09,429.26,410.09Z" transform="translate(0 -16.88)"/><path class="cls-8" d="M378.41,299c1.75,2.67,3.81,14.33,3.81,14.33a12.13,12.13,0,0,1,1.29,4.94c-.08,2.26,1.3,6.42,1.3,6.42l4.53,16.75s-.49,4.45,1.21,7.59,1.54,2.19.73,7.69,1,10.61,3.89,12.22-1.3,5.42-1.3,5.42,18.62,5,22.5,2-2-18.29-2-18.29,1-12.8.33-14.66-3.41-17.74-3.41-17.74-1.69-7.2-1-8.42-.41-4.69-.41-4.69-2.74-3.89-2.51-5.1-.81-3.38-.81-3.38,8.26-12.63,7.53-15,.32-6.15.32-6.15l2.3-3.93c1.54-2.63,3.39-5.77,4-6.75a86.7,86.7,0,0,0,3.77-9.63l.76-2.19s1.29,23.79,2.43,26.22,2.83,21.6,2.83,21.6a13.49,13.49,0,0,1,.81,5.34c-.16,3,2.59,16,2.59,16s1.22,9.23.41,11.67-.17,20.32-.17,20.32-4.45,3.5-5.58,6.15.16,10,.16,10,12.95,6.48,18.68,4.78S450.74,371,450.74,371s3.89-6.48,3.89-9a101.56,101.56,0,0,1,1.38-10.2c4.94-9.07,3-31.08,3.8-32.86s-1.67-8.42-3.71-11.39-1.21-11.09,0-13.43-1.2-10.5-1.2-10.5,2.33-15.71,2.27-18.13,2-9.63,2-9.63,2.11-3.73,1.62-4.86,1.62-4.05,1.05-5.35.49-5.25,1.54-7.58a48.27,48.27,0,0,0,1.75-7.46c.5-2.8.87-5.25.87-5.25l-13.36-10.77-33.35-8.75-12.55-4.05-12.22,19.26s-1.26,2-2.38,4.33c-1,2-1.82,4.24-1.66,5.62a7.76,7.76,0,0,1-1.14,5s-7.31,23.09-7.14,29.73S379.65,287,379.65,287,376.63,296.37,378.41,299Z" transform="translate(0 -16.88)"/><polygon class="cls-5" points="413.27 122.42 413.27 172.93 399.92 199.87 399.92 199.87 399.49 200.73 364.14 198.39 350.55 197.49 319.01 195.41 319.01 134.99 350.55 135.88 364.66 136.28 400.34 137.29 413.27 122.42"/><polygon class="cls-3" points="413.27 125.4 413.27 172.93 410.01 179.51 410.01 179.52 406.66 186.26 406.66 186.26 399.92 199.87 400.67 149.36 400.82 139.17 407.24 132.07 407.24 132.07 410.03 128.98 413.27 125.4"/><polygon class="cls-5" points="415.08 109.01 415.08 126.65 413.27 129.54 410.03 134.7 407.16 139.27 400.82 149.37 400.67 149.36 316.24 145.02 316.24 127.61 316.45 127.39 326.53 116.47 330.18 112.53 336.77 105.39 415.08 109.01"/><polygon class="cls-4" points="410.04 117.13 410.03 128.98 410.03 134.7 410.01 179.51 410.01 179.52 406.66 186.26 407.16 139.27 407.24 132.07 407.24 132.07 407.35 121.46 326.53 116.47 330.18 112.53 410.04 117.13"/><polygon class="cls-4" points="370.37 117.71 364.71 130.01 364.66 136.28 364.14 198.39 350.55 197.49 350.55 129.19 357.8 117.71 370.37 117.71"/><path class="cls-4" d="M351.72,135.4a17.92,17.92,0,0,1-10.13.35,4.09,4.09,0,0,1-1.75-.82,4.56,4.56,0,0,1-1.09-2.18,17.09,17.09,0,0,1-1-5.21,5.92,5.92,0,0,1,2.16-4.67,4.18,4.18,0,0,0,.83-.62,3.2,3.2,0,0,0,.63-1.28c1-3,2.92-6.08,6-6.55,2.84-.43,5.43,1.55,7.62,3.41l4.8,4.09a7.59,7.59,0,0,1,14.14-.2,26.79,26.79,0,0,1,10.68-7.33,3.31,3.31,0,0,1,2.81-.11,3.19,3.19,0,0,1,1.11,1.5,23.11,23.11,0,0,1,2.09,9.11,1.59,1.59,0,0,1,1.85.64,4.31,4.31,0,0,1,.62,2,30.46,30.46,0,0,1,.19,3.31,5,5,0,0,1-.87,3.31c-1,1.13-2.67,1.26-4.18,1.29a1.69,1.69,0,0,1-.43,2.49,4.83,4.83,0,0,1-2.82.54c-3.73,0-7.7-.14-10.82-2.22-1.22-.82-2.25-1.91-3.5-2.72-3-2-6.8-2.09-10.29-1.93C357.22,131.8,354.72,134.42,351.72,135.4Z" transform="translate(0 -16.88)"/><path class="cls-4" d="M351.05,134.59s-31.18,4.35-35.53,23.2l6.53-1,4.59,8.22s4.83-18.38,19.09-22.72,19.33-5.08,19.33-5.08,9.92,2.42,18.85,31.18l5.08-7,8.94,1.94s-6.52-22.48-24.17-28.76Z" transform="translate(0 -16.88)"/><path class="cls-7" d="M427.72,111.41c.51-.21,35.72-14.75,30.87-17.64-2.87-1.72-6.42-9-8.84-14.67-1.7-4-2.85-7.18-2.85-7.18s-28.26-5-18.14,12.3a31.92,31.92,0,0,1,3.56,8.53C435.21,104.55,428,111.2,427.72,111.41Z" transform="translate(0 -16.88)"/><path class="cls-3" d="M428.76,84.22a31.92,31.92,0,0,1,3.56,8.53A19.75,19.75,0,0,0,449,81a19.48,19.48,0,0,0,.74-1.92c-1.7-4-2.85-7.18-2.85-7.18S418.64,66.9,428.76,84.22Z" transform="translate(0 -16.88)"/><path class="cls-7" d="M411.19,72.4a19.75,19.75,0,0,0,37.82,8,19.52,19.52,0,0,0,1.68-8,19.75,19.75,0,0,0-39.5,0Z" transform="translate(0 -16.88)"/><path class="cls-3" d="M392.14,225.43c2.07,1.88,2.86,5.45,2.86,5.45s9.74,6.65,9.07,2.43,5-21.2,5-21.2l-.65,23.15s31.08-1.46,33.35-3.73,15.54-6.63,15.54-6.63,4.09,3.26,7.8,5.73c.5-2.79.86-5.25.86-5.25l-13.36-10.76-33.34-8.76-12.55-4.05-12.22,19.26S393.26,223.11,392.14,225.43Z" transform="translate(0 -16.88)"/><path class="cls-11" d="M391.12,223.6c2.59,1.62,3.56,6,3.56,6s9.71,6.64,9.06,2.43,5-21.21,5-21.21L408.12,234s31.08-1.45,33.34-3.72S457,223.6,457,223.6s11.49,9.23,13.59,8.42-3.72-16.51-3.72-16.51l-6-91.95s1.62-27.36-.81-28.33a3.51,3.51,0,0,1-1-.64c-1.6-1.44-2.08-4.36-2.22-6.81-.15-2.92-4-1.46-4-1.46l2.26,2.92L435,101.43l-.17.11a23.77,23.77,0,0,0-2.41-1.1c-1.75-.68-4.14-1.32-5.69-.68a5.57,5.57,0,0,0-2.12,1.91,23.79,23.79,0,0,0-2.73,5.54l-7.29,12.3s-3.72,16.34-3.72,17-1.13,15.54-2.43,17.16-2.59,9.71-2.1,12.14-.82,11.49-.82,11.49c-5.34,4.37-8.09,19.26-8.09,19.26s-8.42,16.68-9.06,18.62S388.53,222,391.12,223.6Z" transform="translate(0 -16.88)"/><path class="cls-3" d="M435,102.08c2,2.92,7.66,7,7.66,7l16.4-13.85c-1.6-1.44-2.08-4.36-2.22-6.81-.15-2.92-4-1.46-4-1.46l.47.58a2.62,2.62,0,0,1-.46,3.66,2.2,2.2,0,0,1-.25.17Z" transform="translate(0 -16.88)"/><path class="cls-11" d="M435,101.43c2,2.92,7.66,7,7.66,7l16.4-13.85c-1.6-1.44-2.08-4.36-2.22-6.81-.15-2.92-4-1.46-4-1.46l.47.58a2.62,2.62,0,0,1-.46,3.66,2.2,2.2,0,0,1-.25.17Z" transform="translate(0 -16.88)"/><path class="cls-3" d="M427.42,103.61c2.12,2.54,5.12,5.41,5,4s1.79-4.61,3-6a9,9,0,0,0-5.88.16A5.57,5.57,0,0,0,427.42,103.61Z" transform="translate(0 -16.88)"/><path class="cls-11" d="M427.09,102.65c2.12,2.53,5.12,5.41,5,4s1.6-3.77,2.83-5.19c-1.75-.68-4.13-1.33-5.69-.69A5.44,5.44,0,0,0,427.09,102.65Z" transform="translate(0 -16.88)"/><path class="cls-3" d="M459.05,95.39s-.21-1.94,2.6,1.4,8.09,6.26,8.09,6.26,12,8.42,12.62,12.31,4.53,20.72,2.49,26.33-17.71,32.48-17.71,32.48,4.09,4.86,3.14,10.58-2.16,13.6-1.62,15.33-.65,6,1.16,7.55,3.78,4.08-1.94,7.56c0,0-1.08,2.91-.11,3.56s-14.35,7.34-20.4,3.77-16.92-32.05-17.16-38.42,3.35-27.43,5.29-32.38,7.77-24.28,10.25-28.6S459.05,95.39,459.05,95.39Z" transform="translate(0 -16.88)"/><path class="cls-8" d="M459.7,95.39s-.21-1.94,2.59,1.4,8.1,6.26,8.1,6.26,12,8.42,12.63,12.31,4.53,20.72,2.48,26.33-17.73,32.48-17.73,32.48,4.09,4.86,3.14,10.58-2.16,13.6-1.62,15.33-.65,6,1.16,7.55,3.78,4.08-1.94,7.56c0,0-1.08,2.91-.11,3.56s-14.35,7.34-20.4,3.77-16.92-32.05-17.16-38.42,3.35-27.43,5.29-32.38,7.77-24.28,10.25-28.6S459.7,95.39,459.7,95.39Z" transform="translate(0 -16.88)"/><path class="cls-3" d="M432.7,99.06s-6-3.67-13.58,5.72c0,0-5.5,3.13-7.12,3.88s-3.45,20.83-3.45,20.83-3.56,8.63-2.59,13.6-2.8,22-2.8,22-6.27,30.65-6.05,31.52,6.37-9.61,6.26-14.79,5.18-21.37,5.94-22.34,5.94-28.71,5.94-28.71,4.21-11.77,6.9-15.65,6.05-11.22,7.45-12.52a14.36,14.36,0,0,1,3.34-2.16Z" transform="translate(0 -16.88)"/><path class="cls-8" d="M432.76,99.06s-6.75-3.67-14.31,5.72c0,0-5.5,3.13-7.12,3.88s-3.45,20.83-3.45,20.83-3.56,8.63-2.59,13.6-2.81,22-2.81,22-6.26,30.65-6,31.52,6.37-9.61,6.26-14.79,5.18-21.37,5.94-22.34,5.93-28.71,5.93-28.71,4.21-11.76,6.91-15.64,6-11.23,7.44-12.52a13.16,13.16,0,0,1,4-2.16Z" transform="translate(0 -16.88)"/><path class="cls-7" d="M403.16,166.51s-12.84-8.41-19.05-4.27-16.35,10-6.37,14.31S401.53,180,401.53,180Z" transform="translate(0 -16.88)"/><path class="cls-10" d="M367.81,397.63c.81,3.32,12.14,3.64,17.56,2.75s16.68-4.1,16.68-4.1,11.81-1.13,15.29-2.59.73-5.19.73-5.19v-.34c.08-1.35.33-6.26-.5-7.59-1-1.53-.41-6.55-.41-6.55s-16.75,3.24-17.08,1.7-2.92-3.73-4.13-4.21-2.1,4-2.1,4-7.59,6.48-8.1,8.83-5.83,3.56-5.83,3.56-8.1,2.27-10.21,3.4a3.9,3.9,0,0,0-2.23,3.14A8.82,8.82,0,0,0,367.81,397.63Z" transform="translate(0 -16.88)"/><path class="cls-3" d="M367.81,397.63c.81,3.32,12.14,3.64,17.56,2.75s16.68-4.1,16.68-4.1,11.81-1.13,15.29-2.59.73-5.19.73-5.19v-.34l-16.92,3.75s-8.34,3.56-13.68,3.56c-4.67,0-15.11,1.91-20-1A8.81,8.81,0,0,0,367.81,397.63Z" transform="translate(0 -16.88)"/><path class="cls-3" d="M412,66.93a5,5,0,0,0,1,.4c1.52.41,3-.61,4.35-1.43s3.21-1.42,4.38-.37c1.52,1.39.42,4.34,2,5.68,1,.84,2.57.58,3.67,1.25S428.75,74.67,429,76s.83,2.81,2.12,3.2,2.48-.46,3.75-.41c.26,0,.58,0,.75-.16a.79.79,0,0,0,.12-.58,12.48,12.48,0,0,1,.41-4.67,4.51,4.51,0,0,1,3.29-3.08c2.27-.35,4.18,1.64,5.52,3.5A59.15,59.15,0,0,1,448.82,80c.07.14.13.28.19.43A19.76,19.76,0,0,0,431,52.65a19.76,19.76,0,0,0-19,14.29Z" transform="translate(0 -16.88)"/><path class="cls-12" d="M445,73.46c-1.33-1.87-3.24-3.86-5.52-3.5A4.46,4.46,0,0,0,436.21,73a12.26,12.26,0,0,0-.41,4.67.8.8,0,0,1-.14.58c-.17.19-.48.16-.74.15-1.26,0-2.53.78-3.74.42s-1.85-1.88-2.13-3.2-.58-2.81-1.72-3.5-2.67-.41-3.67-1.26c-1.57-1.33-.46-4.29-2-5.67-1.16-1.06-3-.46-4.37.36s-2.83,1.84-4.36,1.44c-.51-.14-1-.44-1.47-.63-2.4-.91-5.51.63-7.49-1a5.82,5.82,0,0,1-1.49-2.59,16.27,16.27,0,0,1-1.09-4.12,5.47,5.47,0,0,1,1.1-4c1.28-1.52,3.45-1.89,5.09-3a12.63,12.63,0,0,0,3.26-3.84A14.43,14.43,0,0,1,414,43.88a4.67,4.67,0,0,1,4.76-.74,5,5,0,0,0,1.55.73,3.16,3.16,0,0,0,1.75-.47c5.62-2.64,12.16-2.18,18.31-1.39a23.94,23.94,0,0,1,7.21,1.75,8.65,8.65,0,0,1,4.86,5.33c.5,1.9.12,4,.73,5.84.4,1.27,1.25,2.33,1.75,3.61,1.31,3.41-.26,7.16-.93,10.75-.72,3.93-.36,8.17-2,11.9-.32.73-.69,2-1.51,1.52-.59-.35-1.21-2.42-1.56-3.07A56.63,56.63,0,0,0,445,73.46Z" transform="translate(0 -16.88)"/><path class="cls-3" d="M480.53,136.72l2.92,8.31s-6.91,25.68-10.15,31.09-8,12.3-8,12.3a29.68,29.68,0,0,1-17.27,2.16c-9.29-1.83-36.37-6.69-36.37-6.69a3.59,3.59,0,0,1-3.45-1.3c-1.19-1.73-7.34-2.59-7.34-2.59s-7.13-10.36,1.62-14.68c0,0,1.07,2.38,5.72.76s6,1.29,6,1.29,7.56,1.52,11.76,1,14.68-.75,15.76-1.61a1.37,1.37,0,0,1,1.94.1,11.74,11.74,0,0,0,3.45-1.94c.87-1,2.06,1.08,2.06,1.08s1.51-.86,1.08-1.94,1.4-5.18,1.4-5.18A10.54,10.54,0,0,0,452,154c-.54-2.16,2.7-9.92,2.7-9.92a13.79,13.79,0,0,0-.43-3.89c-.54-1.94,4.09-5.83,4.09-5.83s4.53-22,14.14-14.79S480.53,136.72,480.53,136.72Z" transform="translate(0 -16.88)"/><path class="cls-8" d="M481.2,136.72l2.92,8.31s-6.91,25.68-10.15,31.09-8,12.3-8,12.3a29.68,29.68,0,0,1-17.27,2.16c-9.28-1.83-36.38-6.69-36.38-6.69a3.6,3.6,0,0,1-3.45-1.3c-1.18-1.73-7.34-2.59-7.34-2.59s-7.12-10.36,1.62-14.68c0,0,1.08,2.38,5.72.76s6,1.29,6,1.29,7.59,1.52,11.77,1,14.68-.75,15.75-1.61a1.37,1.37,0,0,1,1.94.1,11.88,11.88,0,0,0,3.46-1.94c.86-1,2.05,1.08,2.05,1.08s1.51-.86,1.08-1.94,1.4-5.18,1.4-5.18a10.39,10.39,0,0,0,.32-4.86c-.54-2.16,2.71-9.92,2.71-9.92a13.8,13.8,0,0,0-.44-3.89c-.54-1.94,4.09-5.83,4.09-5.83s4.53-22,14.14-14.79S481.2,136.72,481.2,136.72Z" transform="translate(0 -16.88)"/><g class="cls-13"><path d="M436.18,71.2a4.51,4.51,0,0,1,3.29-3.08c2.27-.35,4.18,1.64,5.52,3.51a56.4,56.4,0,0,1,3.83,6.15c.35.65.94,2.72,1.55,3.08.82.48,1.17-.8,1.52-1.53,1.67-3.71,1.3-8,2-11.89.42-2.3,1.21-4.67,1.39-6.94.24,2.81-.86,5.79-1.39,8.66-.73,3.93-.36,8.17-2,11.9-.33.73-.7,2-1.52,1.53-.58-.36-1.2-2.43-1.55-3.08A57.2,57.2,0,0,0,445,73.36c-1.33-1.88-3.24-3.86-5.52-3.5a4.45,4.45,0,0,0-3.28,3.07,8.75,8.75,0,0,0-.44,2.43A11.46,11.46,0,0,1,436.18,71.2Z" transform="translate(0 -16.88)"/><path d="M402.47,61A5.82,5.82,0,0,0,404,63.54c2,1.64,5.08.09,7.48,1a16,16,0,0,0,1.48.62c1.52.41,3-.58,4.35-1.43s3.21-1.42,4.38-.37c1.52,1.39.42,4.35,2,5.68,1,.85,2.57.58,3.67,1.25s1.44,2.21,1.72,3.5.83,2.82,2.12,3.2,2.48-.46,3.75-.41c.26,0,.58,0,.74-.16a.38.38,0,0,0,.09-.15c0,.43,0,.86,0,1.29a.81.81,0,0,1-.13.59c-.18.19-.48.16-.74.15-1.27,0-2.53.77-3.75.41s-1.84-1.88-2.12-3.2-.59-2.81-1.72-3.53-2.68-.41-3.67-1.25c-1.57-1.33-.47-4.29-2-5.67-1.17-1.06-3-.45-4.38.36s-2.83,1.84-4.35,1.43c-.51-.14-1-.43-1.48-.62-2.4-.92-5.51.63-7.48-1a5.73,5.73,0,0,1-1.49-2.59,16,16,0,0,1-1.09-4.12,6.4,6.4,0,0,1,0-1.45A17.43,17.43,0,0,0,402.47,61Z" transform="translate(0 -16.88)"/></g><path class="cls-14" d="M136.31,345.58c0,36.43,21.15,65.95,47.23,65.95s47.22-29.53,47.22-65.95-21.14-65.95-47.22-65.95S136.31,309.15,136.31,345.58Zm3.26-.88c0-31.89,18.59-57.75,41.52-57.75s41.56,25.87,41.56,57.75-18.59,57.74-41.53,57.74-41.55-25.85-41.55-57.74Z" transform="translate(0 -16.88)"/><path class="cls-15" d="M177.84,201.45l3.25,55.38h64a22.13,22.13,0,0,1,15,5.69,20,20,0,0,1,6.45,13v83.05h-8.17l.06-5.7H177.81v-8.17h80.78l.67-66.64a11,11,0,0,0-.26-2.49c-.5-2.2-1.91-6.2-5.67-8.45a10.56,10.56,0,0,0-5.43-1.41H175.38l-4.09-57.81H146.9v-6.49Z" transform="translate(0 -16.88)"/><path class="cls-3" d="M177.84,201.45l3.25,55.38h64a22.13,22.13,0,0,1,15,5.69,20,20,0,0,1,6.45,13v83.05h-8.17l.06-5.7H177.81v-8.17h80.78l.67-66.64a11,11,0,0,0-.26-2.49c-.5-2.2-1.91-6.2-5.67-8.45a10.56,10.56,0,0,0-5.43-1.41H175.38l-4.09-57.81H146.9v-6.49Z" transform="translate(0 -16.88)"/><polygon class="cls-14" points="175.81 214.29 114.33 212.26 117.58 297.75 264.96 299.38 261.3 264.78 181.09 278.21 175.81 214.29"/><rect class="cls-15" x="120.02" y="327.88" width="81.43" height="8.14"/><path class="cls-15" d="M175.38,338.59V314.66h6.51v23.93c2.41,1.81,4.09,5.53,4.09,9.84,0,6.07-3.29,11-7.33,11s-7.33-4.92-7.33-11C171.32,344.12,173,340.4,175.38,338.59Z" transform="translate(0 -16.88)"/><path class="cls-15" d="M207.39,359a7.66,7.66,0,0,0-10-.36h0s-9.77,6.51-.82,34.2c0,0,6.52,4.09,3.26-9s-1.63-21.17,1.63-21.17,7.33,9,7.33,9l5.7-2.44A34.48,34.48,0,0,0,207.39,359Z" transform="translate(0 -16.88)"/><path class="cls-15" d="M268.46,359a7.66,7.66,0,0,0-10-.36h0s-9.77,6.51-.82,34.2c0,0,6.52,4.09,3.27-9s-1.64-21.17,1.63-21.17,7.32,9,7.32,9l5.7-2.44A34.48,34.48,0,0,0,268.46,359Z" transform="translate(0 -16.88)"/><ellipse class="cls-14" cx="267.81" cy="373.48" rx="18.32" ry="24.43"/><ellipse class="cls-14" cx="206.74" cy="373.48" rx="18.32" ry="24.43"/><path class="cls-16" d="M316,388.69c-1.88-1.92-4.75-3.34-6.49-3.34-3.65,0-18-17.07-19-19.48-.35-.89-.94-.59-1.53.19a45.27,45.27,0,0,1-3.11-9.43c1.54-.39,2.53-.67,2.53-.67s.19-5.5-1.17-6.07h0c-1.31-.77-1.31-12.11-1.31-12.11s-3.06-10-2.68-13.64S275.61,293,275.61,293s-2.11-16.56-5.94-18.24c-3.24-1.41-30.52-9.2-39-11.59-.18-.41-1.49-3-5.73-3-4.6,0-18.4.19-23-5.12a10.26,10.26,0,0,1-1.42-2.3c2.27-4.18,2.42-11.09,1.6-12.68a31.09,31.09,0,0,1-1.91-6.83s-.58-11-1.36-13.84-4-26.17-4-26.17-6.52-6.22-11.12-7.56a19.32,19.32,0,0,1-5.58-2.92c.07-.38.14-.72.19-1a17.21,17.21,0,0,0,5.84-9.77,3,3,0,0,0,.19-.65,6.78,6.78,0,0,0,0-.9,15.25,15.25,0,0,0,.1-1.66v-.36a2.32,2.32,0,0,1,.32-.76c.68-1,2.06-1.17,3.16-1.65a3.29,3.29,0,0,0,.49-.26l.14-.09.29-.2.17-.13.24-.21.15-.15.21-.22.15-.18.17-.22.14-.21a1.64,1.64,0,0,0,.14-.22,1.71,1.71,0,0,0,.13-.23c0-.08.08-.15.11-.22s.09-.17.13-.26a1.19,1.19,0,0,0,.08-.2l.12-.3.05-.15c0-.12.07-.24.11-.36v0a9.12,9.12,0,0,0,.27-3h0a4.78,4.78,0,0,0-.09-.76c-.29-1.75-.92-3.56-.71-5.28h0a2.33,2.33,0,0,1,.08-.46v-.05a3.62,3.62,0,0,1,.13-.47c.24-.69.65-1.33.87-2h0c0-.15.08-.29.11-.44v-.12c0-.12,0-.24,0-.37v-.08a5.16,5.16,0,0,0-.06-1h0a6.25,6.25,0,0,0-2.09-3.5,16,16,0,0,0-5.69-2.83c-5.25-1.75-10.72-3.41-16.28-3.76-2.44-.16-5.63-.91-7.59.58-2.28,1.75-3.7,3.07-6.54,4.26-2.05.85-4.19,2.17-4.67,4.25a16,16,0,0,0-.1,2.77c-.09,1.87-1,3.61-1.57,5.4a8.15,8.15,0,0,0-.43,3.25v.06a1.59,1.59,0,0,0,.06.37V159a3.8,3.8,0,0,0,.25.81s0,.06,0,.1l.14.29.06.09a2.82,2.82,0,0,0,.24.36c.35.47.83.87,1.16,1.37a5.5,5.5,0,0,1,.67,2.51l.27,2.67v.2c0,.39,0,.79,0,1.16a16.91,16.91,0,0,0,.22,2.75c-1.94,1.46-4,3.22-4.36,4.5a2.16,2.16,0,0,0-.46,1.29h0c-1.83,1.43-9.59.58-9.59.58s-6.33,3.42-8.63,2.08-16.1,9.3-16.1,9.3-3.65.19-3.84,1.71c0,0-4.6,3.41-8,3.41s-5.57,4.36-5.57,4.36-5.74,2.66-7.66,3-5.18,2.28-4.22,3-.19,2.46-1.92,3.79-4.41,8.17-2.1,9.1,8.62,2.85,10.35,3.8a3.81,3.81,0,0,0,2.15.4,5.72,5.72,0,0,0,2.45-.4l.27-.34c2.25,1.71,5.18,3.47,8,3.75,4.45.44,14,2.26,18.06,3v.75c0,7.09.29,14.43,1.66,16.68,2.88,4.74,3.26,41.91,3.26,41.91s9,1.33,12.08,4.17c2.92,2.69,17.61,7.59,20.51,1.22l.92.4c7.47,3.24,17.39,7.85,18.53,9.92,1.84,3.41,15.07,9.1,15.07,9.1s8.63.19,6.13,8.18,16.56,27.09,16.56,27.09a5.24,5.24,0,0,0,1.1,3.34,5.36,5.36,0,0,0,.82.83,16.14,16.14,0,0,0,5.9,2.12,11.81,11.81,0,0,1,1.17,3.19c-.1.22.83,1.05,2,2.12h0a43.43,43.43,0,0,0,3.3,6h0a5,5,0,0,0,1.71,1.72c1.87.76,21.32,12.32,25,12.7,3.39.36,10.28,2,16.48-2.8l-1,8.09-.33,2.68s9.78,4,13.81,4,17.63,6.45,17.63,6.45,9,1.9,15-2.08C319,393.48,318.11,390.77,316,388.69Zm-61.86-87.94c-1,2.08-.34,5.88.11,5.88s2.57,3,1.42,6.45,7.48,34.51,11.31,38.68a1,1,0,0,1-.07.29c-.28,1.26-1.08,6.41,4.29,6.72h.62c.4,3.25,1,8.36,1.39,12.59-.86-2.51-4.2-5.06-7.52-7.07a65.88,65.88,0,0,0-7.72-3.93s-10.74-2.56-13-4.67-9.15-5.9-9.15-5.9h0c-1.08-1-2.3-2.08-3.44-3.13.06-.44.1-.91.13-1.4a21.48,21.48,0,0,0-1-2.92,5.68,5.68,0,0,0-1.67-2.42c-1.53-.94-6.71-20.48-6.71-22.76s-3.25-13.08-4.4-15a39.15,39.15,0,0,1-2.5-6.65s17.45,2.67,33.75,1.16C249.92,296.76,255.1,298.66,254.17,300.75Zm-135-87.61v.22l-1-.25C118.77,213.14,119.15,213.14,119.15,213.14Zm55.35-28.95v1.06l-.2-.2c-.16-.18-.31-.37-.47-.56a4.43,4.43,0,0,0,.67-.3Zm18.77,39.92c-.2-1.12-.3-1.75-.3-1.75l.07-1.07Zm-88.71-13.47a5.78,5.78,0,0,1,1.25-.26,3,3,0,0,1,1.06.29c.45.21.92.41,1.39.58l-3.34-.58a1.45,1.45,0,0,0-.36,0Z" transform="translate(0 -16.88)"/><path class="cls-17" d="M218.08,347.6s3.85,8,3.67,8.54,8.27,7.33,8.27,7.33l9.22-6.58-.93-4.52S228,343,227.22,342,218.08,347.6,218.08,347.6Z" transform="translate(0 -16.88)"/><path class="cls-18" d="M270.67,374.58c-6.42,6.21-13.92,4.32-17.51,3.95s-22.67-11.86-24.51-12.61a4.8,4.8,0,0,1-1.67-1.71h0a44.67,44.67,0,0,1-3.24-6c.13,0,6.39,1.82,8,0,0,0,2.63-3.24,3.19-3.24s.05-5.66.05-5.66,6.73,3.78,9,5.83,12.79,4.61,12.79,4.61a65.53,65.53,0,0,1,7.59,3.91C269.34,366.75,274.31,371.05,270.67,374.58Z" transform="translate(0 -16.88)"/><path class="cls-17" d="M269.93,355s2.68,20.14,2,22.77,16.82-9,16.82-9-6.12-12.62-4.33-15.52S269.93,355,269.93,355Z" transform="translate(0 -16.88)"/><path class="cls-8" d="M286.67,355.38s-10.91,3.2-16.93,2.82c-5.25-.32-4.48-5.41-4.2-6.67,0-.19.07-.29.07-.29-3.77-4.14-12.26-35-11.09-38.39s-.94-6.42-1.39-6.42-1.06-3.77-.12-5.84-4.14-3.95-4.14-3.95c-16,1.51-33.12-1.17-33.12-1.17a38.72,38.72,0,0,0,2.45,6.61c1.13,1.88,4.33,12.61,4.33,14.87s5.08,21.64,6.58,22.58a5.66,5.66,0,0,1,1.64,2.4,22.14,22.14,0,0,1,1,2.87c-.58,12.61-14.87,7.72-16.92,6a5.16,5.16,0,0,1-1.88-4.15s-18.68-19-16.23-26.86-6-8.09-6-8.09-13-5.66-14.79-9c-1.11-2.09-10.85-6.66-18.18-9.88-4.59-2-8.24-3.5-8.24-3.5l3.05-10.92,2.42-8.64,4.53-1.7,14.46-5.42,26-3.58,2.38.31,25.26,3.27s36.88,10.53,40.65,12.2,5.83,18.09,5.83,18.09,7.91,27.29,7.53,30.88,2.63,13.53,2.63,13.53,0,11.26,1.28,12h0C286.85,349.93,286.67,355.38,286.67,355.38Z" transform="translate(0 -16.88)"/><path class="cls-19" d="M231.72,344.84c-.58,12.61-14.87,7.72-16.92,6a4.83,4.83,0,0,1-.8-.83c5,1.85,13.86,3.27,16.74-8.07A22.05,22.05,0,0,1,231.72,344.84Z" transform="translate(0 -16.88)"/><path class="cls-19" d="M286.67,355.38s-10.91,3.2-16.93,2.82c-5.25-.32-4.48-5.41-4.2-6.67,5.52-.18,15-.7,20-2.19h.05C286.85,349.93,286.67,355.38,286.67,355.38Z" transform="translate(0 -16.88)"/><path class="cls-3" d="M231.72,344.84c-.58,12.61-14.87,7.72-16.92,6a4.83,4.83,0,0,1-.8-.83c5,1.85,13.86,3.27,16.74-8.07A22.05,22.05,0,0,1,231.72,344.84Z" transform="translate(0 -16.88)"/><path class="cls-3" d="M286.67,355.38s-10.91,3.2-16.93,2.82c-5.25-.32-4.48-5.41-4.2-6.67,5.52-.18,15-.7,20-2.19h.05C286.85,349.93,286.67,355.38,286.67,355.38Z" transform="translate(0 -16.88)"/><path class="cls-18" d="M313.58,394.71c-5.84,4-14.68,2.08-14.68,2.08s-13.36-6.42-17.31-6.42-13.55-4-13.55-4l.32-2.66L269.93,371s14.66-.37,15.24-1.69c0,0,2.64-6.49,3.58-4.09s15.06,19.34,18.63,19.34c1.7,0,4.52,1.41,6.37,3.31C315.78,390,316.62,392.65,313.58,394.71Z" transform="translate(0 -16.88)"/><path class="cls-3" d="M220.43,340.33c1.88,1.88-17.88-6.21-13.37-6.59S220.43,340.33,220.43,340.33Z" transform="translate(0 -16.88)"/><path class="cls-17" d="M180.91,199.18l-.63-.09c-2.33-.36-10.82-1.69-18.44-3.35-1.85-.4-3.65-.82-5.3-1.25-5.84-1.53-9.74-3.18-7.25-4.53,3.3-1.79,5-5.05,6-7.85.09-.27.17-.54.24-.8a20.69,20.69,0,0,0,.76-4.33s21.27-7.53,17.13,0c-2,3.69-.67,6.7,1.25,8.81a16.67,16.67,0,0,0,4.58,3.42Z" transform="translate(0 -16.88)"/><path class="cls-3" d="M158.14,193.35s7.59,5.45,15.37.94,17.94,39.9,17.94,39.9l10.54,26s6.82,5.65-1.67,8.1S173,265.8,168.19,273s-13.82,8.28-14.77,8.28-4.51-26.91-4.51-26.91l-1-39Z" transform="translate(0 -16.88)"/><path class="cls-20" d="M199.94,266.74c-8.49,2.45-27.35-2.44-32.1,4.71a18.42,18.42,0,0,1-8.1,6.52,21.43,21.43,0,0,1-6.67,1.75c-.13,0-.3-.5-.51-1.35-1.33-5.45-4-25.56-4-25.56l-.93-39,8.94-19.37,1.22-2.65a15.93,15.93,0,0,0,3.87,1.88,13.63,13.63,0,0,0,11.51-.94c2.28-1.32,4.77,1.56,7.14,6.31,5.71,11.41,10.79,33.59,10.79,33.59l10.54,26a7.6,7.6,0,0,1,.71.68C203.82,260.91,206.63,264.82,199.94,266.74Z" transform="translate(0 -16.88)"/><path class="cls-3" d="M159.46,268.05a48.38,48.38,0,0,1,.25,9.92A113.85,113.85,0,0,1,158,292a5.06,5.06,0,0,1-.22.85c-4.6-2-8.24-3.5-8.24-3.5l3-10.94c-1.32-5.45-4-25.57-4-25.57l-.93-38.95,8.94-19.37c-5.84-1.53-9.74-3.18-7.25-4.53,3.62-2,5.36-5.7,6.2-8.66a31.78,31.78,0,0,0,5.35,5.76l.12.1.67,6.56.21,2,.44,4.19s-2.08,49.49-3.58,52.32-.75,8.28.58,14.68C159.34,267.3,159.41,267.66,159.46,268.05Z" transform="translate(0 -16.88)"/><path class="cls-5" d="M158.51,266.18c1.32,6.42.19,16.92-1.32,25s-17.51,2.82-20.51,0-11.85-4.14-11.85-4.14-.38-36.89-3.2-41.59c-1.35-2.23-1.67-9.52-1.63-16.55,0-6.32.34-12.44.45-14.52,0-.47,0-.74,0-.74s-12.25-20.7-12-22.2,3.77-1.7,3.77-1.7,13.55-10.54,15.8-9.22,8.47-2.07,8.47-2.07,7.88.89,9.5-.62a.84.84,0,0,0,.29-.7c-.19-2.41,8-7.55,8.28-7.71-6.92,6.22,4.26,15.81,5.53,16.86l.11.1,1.32,12.77s-2.07,49.49-3.57,52.32S157.19,259.78,158.51,266.18Z" transform="translate(0 -16.88)"/><circle class="cls-19" cx="157.78" cy="195.53" r="0.94"/><path class="cls-3" d="M159.71,187.06,154,192.59l-8.38-14a.89.89,0,0,0,.3-.7c-.19-2.41,8-7.55,8.27-7.71C147.26,176.43,158.45,186,159.71,187.06Z" transform="translate(0 -16.88)"/><path class="cls-5" d="M160.09,186.31l-5.72,5.53-8.39-14a.83.83,0,0,0,.29-.69c-.18-2.41,8-7.55,8.28-7.71C147.64,175.67,158.82,185.26,160.09,186.31Z" transform="translate(0 -16.88)"/><path class="cls-3" d="M229.66,264.48c-4.71,2.08-35.58-3.38-40.09-4.7S178.48,248.3,181.66,241s-1.13-14.52-1.13-14.52-6.77-14.48-8.28-17.31a125.78,125.78,0,0,1-5.08-12.42,1.13,1.13,0,0,1,.27-.86c1.22-1.86,5.94-5.16,5.94-5.16,1.33.48,1.49-3.33,1.44-6.12,0-1.57-.12-2.81-.12-2.81s.62.63,1.64,1.5c.38.31.8.65,1.27,1a19.49,19.49,0,0,0,5.94,3.27c4.52,1.33,10.91,7.5,10.91,7.5L192.58,224s4.33,27.17,8.85,32.44,18.09,5.08,22.58,5.08S229.66,264.48,229.66,264.48Z" transform="translate(0 -16.88)"/><path class="cls-5" d="M230,263.36c-4.7,2.06-35.56-3.39-40.08-4.71s-11.09-11.48-7.9-18.82-1.13-14.49-1.13-14.49-6.78-14.49-8.29-17.32a133.19,133.19,0,0,1-5.07-12.42,1.06,1.06,0,0,1,.27-.85c1.21-1.87,5.94-5.17,5.94-5.17,1.33.49,1.49-3.32,1.44-6.11,0-1.57-.12-2.82-.12-2.82s.62.63,1.64,1.5c.37.31.79.66,1.27,1a19.47,19.47,0,0,0,5.93,3.24c4.51,1.33,10.91,7.5,10.91,7.5L193,222.81s4.33,27.18,8.84,32.45,18.1,5.09,22.59,5.09S230,263.36,230,263.36Z" transform="translate(0 -16.88)"/><path class="cls-3" d="M178.84,181.4s-.18,1-.48,2.52c-1,5.17-3.42,16.45-5.17,16-1.25-.32-3.36-2.53-5-4.44,1.22-1.87,5.94-5.17,5.94-5.17,1.33.49,1.49-3.32,1.44-6.11l1.52-1.31Z" transform="translate(0 -16.88)"/><path class="cls-5" d="M178.46,180.65s-.17,1-.47,2.52c-1,5.16-3.43,16.45-5.17,16-1.25-.31-3.36-2.52-5-4.43,1.21-1.87,5.94-5.17,5.94-5.17,1.33.49,1.49-3.32,1.44-6.11l1.52-1.32Z" transform="translate(0 -16.88)"/><polygon class="cls-2" points="177.69 192.5 177.69 211.59 172.64 221.78 172.64 221.78 172.48 222.1 159.12 221.22 153.98 220.87 142.06 220.08 142.06 197.25 153.98 197.59 159.32 197.74 172.8 198.12 177.69 192.5"/><polygon class="cls-2" points="178.37 187.43 178.37 194.1 177.69 195.19 176.46 197.14 175.38 198.87 172.99 202.69 172.93 202.68 141.01 201.04 141.01 194.46 141.09 194.38 144.9 190.25 146.28 188.76 148.78 186.06 178.37 187.43"/><polygon class="cls-4" points="176.47 190.5 176.46 194.98 176.46 197.14 176.46 214.08 176.46 214.08 175.19 216.63 175.38 198.87 175.41 196.15 175.41 196.14 175.46 192.13 144.9 190.25 146.28 188.76 176.47 190.5"/><polygon class="cls-4" points="161.48 190.72 159.34 195.37 159.32 197.74 159.12 221.22 153.98 220.87 153.98 195.06 156.73 190.72 161.48 190.72"/><path class="cls-4" d="M154.43,207.91a6.75,6.75,0,0,1-3.83.14,1.48,1.48,0,0,1-.67-.31,1.74,1.74,0,0,1-.42-.82,6.67,6.67,0,0,1-.37-2,2.2,2.2,0,0,1,.82-1.75,1.78,1.78,0,0,0,.31-.23,1.27,1.27,0,0,0,.25-.49c.37-1.12,1.09-2.3,2.26-2.48s2.05.59,2.88,1.29l1.81,1.55a2.87,2.87,0,0,1,5.34-.08,10.24,10.24,0,0,1,4-2.76,1.27,1.27,0,0,1,1.06-.05,1.23,1.23,0,0,1,.43.58,8.77,8.77,0,0,1,.78,3.45.57.57,0,0,1,.7.24,1.48,1.48,0,0,1,.24.76,10.48,10.48,0,0,1,.07,1.25,1.85,1.85,0,0,1-.33,1.25,2.06,2.06,0,0,1-1.58.49.63.63,0,0,1-.1.89l-.06.05a1.77,1.77,0,0,1-1.06.21,7.3,7.3,0,0,1-4.09-.84c-.46-.31-.85-.72-1.32-1a6.37,6.37,0,0,0-3.89-.73C156.5,206.54,155.54,207.53,154.43,207.91Z" transform="translate(0 -16.88)"/><path class="cls-4" d="M154.16,207.6s-11.78,1.64-13.42,8.76l2.46-.36,1.75,3.1s1.83-6.94,7.22-8.59a55.52,55.52,0,0,1,7.31-1.91s3.74.91,7.12,11.78l1.92-2.65,3.38.73s-2.47-8.5-9.13-10.87Z" transform="translate(0 -16.88)"/><path class="cls-17" d="M190.51,236.07s-9.42-1.88-12-6-20.55-7.71-18.37-3.38,18.37,18.49,18.37,18.49l7,10,9.34-2.37,3.95-7.67Z" transform="translate(0 -16.88)"/><path class="cls-3" d="M113.35,191.84l-4.14-.37s-4.52,3.38-7.91,3.38-5.46,4.33-5.46,4.33a61,61,0,0,1-7.53,3c-1.88.38-5.07,2.26-4.13,3S84,207.65,82.3,209s-4.33,8.09-2.08,9,8.47,2.82,10.17,3.76a4.66,4.66,0,0,0,3.76,0s10-13,15-10.53,12,2.44,12,2.44l5.46-11.48Z" transform="translate(0 -16.88)"/><path class="cls-5" d="M199.94,253.76a5,5,0,0,1-3.5,2.44,26.52,26.52,0,0,1-10.95-1s18.95-6,.7-20.66h4.89l1.63-.62L192,230l-1.08-35.16,4-.94s3.18,23.15,3.95,26,1.32,13.74,1.32,13.74A32,32,0,0,0,202,240.4C202.81,242.1,202.62,249.75,199.94,253.76Z" transform="translate(0 -16.88)"/><path class="cls-3" d="M199.19,253.76a5,5,0,0,1-3.5,2.44,26.6,26.6,0,0,1-11-1s18.95-6,.7-20.66h4.89l1.63-.62C194.64,238.65,198.85,247.1,199.19,253.76Z" transform="translate(0 -16.88)"/><path class="cls-21" d="M199.94,253.76a5,5,0,0,1-3.5,2.44,26.52,26.52,0,0,1-10.95-1s18.95-6,.7-20.66h4.89l1.63-.62C195.38,238.65,199.6,247.1,199.94,253.76Z" transform="translate(0 -16.88)"/><path class="cls-5" d="M199.94,253.76a5,5,0,0,1-3.5,2.44,26.52,26.52,0,0,1-10.95-1s18.95-6,.7-20.66h4.89l1.63-.62C195.38,238.65,199.6,247.1,199.94,253.76Z" transform="translate(0 -16.88)"/><path class="cls-3" d="M174.63,185.79a17.13,17.13,0,0,1-19.38-3.7q.13-.42.24-.81a20.46,20.46,0,0,0,.76-4.33s21.27-7.53,17.13,0C171.35,180.67,172.71,183.68,174.63,185.79Z" transform="translate(0 -16.88)"/><path class="cls-17" d="M184.67,169.45v.16a14.67,14.67,0,0,1-.09,1.65c-.06.54-.14,1-.24,1.54a17.13,17.13,0,0,1-33,2.21c-.12-.33-.22-.66-.31-1a16.77,16.77,0,0,1-.62-4.56,11.24,11.24,0,0,1,0-1.17,17.13,17.13,0,0,1,34.21,1.17Z" transform="translate(0 -16.88)"/><path class="cls-3" d="M184.67,169.61a7.62,7.62,0,0,0-.09,1.65,6.55,6.55,0,0,1-.05.89,2.33,2.33,0,0,1-.19.65c-.69,1.63-3,2.68-4.44,1.63a4.77,4.77,0,0,1-1.33-1.75c-1.59-2.92-3.79-6.32-7.25-6.38a15.83,15.83,0,0,0-4.29,1c-1.43.37-3.12.41-4.19-.59-.81-.74-1.2-2-2.3-2.28s-2.11.74-2.61,1.75-.91,2.14-1.92,2.65c-.46.22-1,.29-1.43.53-2.05,1.12-1.11,5.05-3.23,5.69l-.21.05L151,174c-.2-1.91-.39-3.82-.59-5.74a17.13,17.13,0,0,1,34.21,1.17Z" transform="translate(0 -16.88)"/><path class="cls-15" d="M154.25,143.88c-2,.86-4.09,2.17-4.56,4.22a17,17,0,0,0-.1,2.76c-.09,1.85-1,3.58-1.54,5.35s-.77,3.85.37,5.36c.35.48.82.87,1.13,1.36a5.45,5.45,0,0,1,.66,2.5l.93,9.26c2.39-.45,1.33-4.58,3.44-5.74.44-.24,1-.31,1.43-.53,1-.51,1.41-1.67,1.92-2.66s1.5-2,2.61-1.75,1.49,1.54,2.3,2.29c1.07,1,2.77.92,4.19.58a17,17,0,0,1,4.29-1c3.46.05,5.66,3.44,7.25,6.37a4.89,4.89,0,0,0,1.33,1.76c1.68,1.16,4.34-.31,4.63-2.29.16-1.1-.19-2.33.46-3.27s2-1.17,3.09-1.63c2.75-1.27,3.6-4.7,3.14-7.59-.33-2.07-1.16-4.22-.47-6.21.23-.69.63-1.32.85-2a5.49,5.49,0,0,0-1.94-5.45,15.87,15.87,0,0,0-5.58-2.81c-5.14-1.71-10.5-3.38-16-3.73-2.4-.15-5.53-.9-7.43.58A24.28,24.28,0,0,1,154.25,143.88Z" transform="translate(0 -16.88)"/><circle class="cls-3" cx="158.72" cy="180.66" r="0.94"/><path class="cls-3" d="M313.58,394.71c-5.84,4-14.68,2.08-14.68,2.08s-13.36-6.42-17.31-6.42-13.55-4-13.55-4l.32-2.66c3.91.76,12.77,2.54,13.79,3.42,1.32,1.13,17.51,6.59,17.51,6.59s11-1.38,14.09-5.91C315.78,390,316.62,392.65,313.58,394.71Z" transform="translate(0 -16.88)"/><g class="cls-13"><path d="M149.59,149.36v.09A.14.14,0,0,0,149.59,149.36Z" transform="translate(0 -16.88)"/><path d="M188.08,165.36c-1.08.5-2.44.68-3.09,1.64s-.3,2.17-.46,3.27c-.29,2-2.95,3.46-4.63,2.28a4.77,4.77,0,0,1-1.33-1.75c-1.59-2.92-3.79-6.32-7.25-6.38a17.49,17.49,0,0,0-4.29,1c-1.42.38-3.12.41-4.19-.58-.81-.74-1.2-2-2.3-2.28s-2.1.74-2.61,1.75-.91,2.15-1.92,2.66c-.46.22-1,.29-1.43.53-2.11,1.16-1.05,5.29-3.44,5.73l-.93-9.26a5.44,5.44,0,0,0-.66-2.49c-.31-.5-.78-.89-1.13-1.36a4.14,4.14,0,0,1-.77-2,4.77,4.77,0,0,0,.77,3.5c.35.47.82.86,1.13,1.36a5.44,5.44,0,0,1,.66,2.49l.93,9.27c2.39-.45,1.33-4.59,3.44-5.74.44-.24,1-.31,1.43-.53,1-.51,1.42-1.67,1.92-2.66s1.5-2,2.61-1.75,1.49,1.54,2.3,2.28c1.07,1,2.77.93,4.19.59a17.51,17.51,0,0,1,4.29-1c3.46.06,5.66,3.45,7.25,6.38a4.77,4.77,0,0,0,1.33,1.75c1.68,1.17,4.34-.31,4.63-2.28.16-1.1-.19-2.33.46-3.27s2-1.17,3.09-1.64c2.51-1.16,3.44-4.12,3.23-6.83A6.13,6.13,0,0,1,188.08,165.36Z" transform="translate(0 -16.88)"/><path d="M191.6,149.56c-.22.69-.62,1.32-.85,2a5.73,5.73,0,0,0-.2,2.5,4.46,4.46,0,0,1,.22-1c.23-.69.64-1.32.85-2a4.24,4.24,0,0,0,.11-2C191.69,149.28,191.65,149.42,191.6,149.56Z" transform="translate(0 -16.88)"/></g><path class="cls-3" d="M136.31,233.24c-4.34-1-14.5-4-14.5-4l-1.81-.36c0-6.32.34-12.44.45-14.52h0s8.67,2.82,10.73,4.33,8.47,1.13,8.47,1.13,10,.59,18.26,9.79S140.64,234.19,136.31,233.24Z" transform="translate(0 -16.88)"/><path class="cls-17" d="M94,216.44a2.5,2.5,0,0,0-1.26,3.31,2.53,2.53,0,0,0,.68.91c2.29,1.9,5.64,4.17,8.83,4.49,5.34.54,18.16,3.11,19.44,3.37l.2,0c1.06.31,10.31,3,14.39,3.91,4.33,1,29.92,5.66,21.64-3.56a29.31,29.31,0,0,0-18.09-9.78h-.33c-1,.05-6.42.24-8.32-1.16a17.44,17.44,0,0,0-3.12-1.55,59.18,59.18,0,0,0-12.72-3.67l-8.83-1.49a2.55,2.55,0,0,0-1.49.19Z" transform="translate(0 -16.88)"/><path class="cls-5" d="M112.59,191.84l-4.14-.37s-4.51,3.38-7.9,3.38-5.46,4.33-5.46,4.33a61,61,0,0,1-7.53,3c-1.88.38-5.08,2.26-4.14,3s-.18,2.44-1.88,3.76-4.33,8.09-2.07,9,8.47,2.82,10.16,3.76a4.68,4.68,0,0,0,3.77,0s10-13,15-10.53,12.07,2.44,12.07,2.44L126,202.19Z" transform="translate(0 -16.88)"/><path class="cls-15" d="M121.65,260.88v48.85h78.17v8.17H122.47v35H114.3v-92Z" transform="translate(0 -16.88)"/><path class="cls-15" d="M85.82,201.45h30.93L120,256.83h64a22.13,22.13,0,0,1,15,5.69,20,20,0,0,1,6.45,13v83.05h-8.14l.81-80.48a11,11,0,0,0-.26-2.49c-.5-2.2-1.91-6.2-5.67-8.45a10.56,10.56,0,0,0-5.43-1.41h-72.5L110.24,208H85.82Z" transform="translate(0 -16.88)"/><path class="cls-14" d="M75.24,345.58c0,36.43,21.15,65.95,47.23,65.95s47.22-29.53,47.22-65.95-21.14-65.95-47.22-65.95S75.24,309.15,75.24,345.58Zm3.26-.88C78.5,312.81,97.09,287,120,287s41.53,25.86,41.53,57.75S143,402.44,120,402.44,78.5,376.59,78.5,344.7Z" transform="translate(0 -16.88)"/><ellipse class="cls-14" cx="117.58" cy="330.73" rx="7.33" ry="11"/><path class="cls-15" d="M203.89,331.74v8.95c2.56-1.59,5.37-1.16,7.85-.09a14.79,14.79,0,0,1,8.13,9.57c2,6.83,5.83,20.26,9.27,32.89C234,401,243,396.86,243,396.86l62.29,4.48,26.47-13.42v-8.17H265s-15.48,5.7-22,8.17-4.09-2.45-12.67-33.17S203.89,331.74,203.89,331.74Z" transform="translate(0 -16.88)"/><ellipse class="cls-5" cx="598.26" cy="370.67" rx="34.71" ry="6.68"/><ellipse class="cls-4" cx="597.68" cy="367.83" rx="4.04" ry="5.29"/><ellipse class="cls-4" cx="597.68" cy="361.36" rx="4.04" ry="5.29"/><ellipse class="cls-4" cx="597.68" cy="354.9" rx="4.04" ry="5.29"/><ellipse class="cls-4" cx="597.68" cy="348.43" rx="4.04" ry="5.29"/><ellipse class="cls-4" cx="597.68" cy="341.97" rx="4.04" ry="5.29"/><ellipse class="cls-4" cx="597.68" cy="335.5" rx="4.04" ry="5.29"/><ellipse class="cls-4" cx="597.68" cy="329.04" rx="4.04" ry="5.29"/><path class="cls-5" d="M612.81,301.68a22.24,22.24,0,0,0,1.51-2.22l-10.63-1.75,11.49.08a19.4,19.4,0,0,0,.37-15.33l-15.4,8L614.35,280a19.36,19.36,0,1,0-33.51,19.39,20.25,20.25,0,0,0,1.54,2.28,19.54,19.54,0,0,0-2.21,3.53L594,312.36l-14.71-4.92a19.35,19.35,0,0,0,3.11,18.17,19.35,19.35,0,1,0,30.43,0,19.36,19.36,0,0,0,0-23.93Z" transform="translate(0 -16.88)"/><ellipse class="cls-5" cx="54.32" cy="372.1" rx="23.88" ry="4.59"/><ellipse class="cls-4" cx="53.93" cy="370.15" rx="2.78" ry="3.64"/><ellipse class="cls-4" cx="53.93" cy="365.7" rx="2.78" ry="3.64"/><ellipse class="cls-4" cx="53.93" cy="361.26" rx="2.78" ry="3.64"/><ellipse class="cls-4" cx="53.93" cy="356.8" rx="2.78" ry="3.64"/><ellipse class="cls-4" cx="53.93" cy="352.36" rx="2.78" ry="3.64"/><ellipse class="cls-4" cx="53.93" cy="347.91" rx="2.78" ry="3.64"/><ellipse class="cls-4" cx="53.93" cy="343.46" rx="2.78" ry="3.64"/><path class="cls-5" d="M64.33,329.9a13.16,13.16,0,0,0,1-1.52l-7.31-1.17,7.91.06a13.34,13.34,0,0,0,.25-10.55l-10.6,5.5L65.39,315a13.32,13.32,0,0,0-23.06,13.32,12.89,12.89,0,0,0,1.07,1.58,13.56,13.56,0,0,0-1.52,2.43l9.48,4.93-10.11-3.4a13.52,13.52,0,0,0-.7,4.28,13.22,13.22,0,0,0,2.85,8.23,13.32,13.32,0,1,0,20.93,0,13.29,13.29,0,0,0,0-16.47Z" transform="translate(0 -16.88)"/><ellipse class="cls-5" cx="354.89" cy="357.8" rx="17.46" ry="3.36"/><ellipse class="cls-4" cx="354.6" cy="356.37" rx="2.03" ry="2.66"/><ellipse class="cls-4" cx="354.6" cy="353.12" rx="2.03" ry="2.66"/><ellipse class="cls-4" cx="354.6" cy="349.86" rx="2.03" ry="2.66"/><ellipse class="cls-4" cx="354.6" cy="346.61" rx="2.03" ry="2.66"/><ellipse class="cls-4" cx="354.6" cy="343.36" rx="2.03" ry="2.66"/><ellipse class="cls-4" cx="354.6" cy="340.11" rx="2.03" ry="2.66"/><ellipse class="cls-4" cx="354.6" cy="336.86" rx="2.03" ry="2.66"/><path class="cls-5" d="M362.21,331.5a11.49,11.49,0,0,0,.76-1.11l-5.34-.88,5.77,0a9.8,9.8,0,0,0,.19-7.72l-7.75,4,7.14-5.26a9.73,9.73,0,1,0-16.07,10.91,9.46,9.46,0,0,0-1.12,1.75l6.93,3.6-7.38-2.48a9.71,9.71,0,0,0,1.57,9.14,9.73,9.73,0,1,0,15.3,0,9.73,9.73,0,0,0,0-12Z" transform="translate(0 -16.88)"/><circle class="cls-1" cx="273.09" cy="54.68" r="8.91"/><circle class="cls-1" cx="304.98" cy="31.82" r="14.94" transform="translate(210.54 306.67) rotate(-78.02)"/><circle class="cls-1" cx="285.21" cy="104.32" r="14.94" transform="translate(132.98 350.22) rotate(-80.01)"/><circle class="cls-1" cx="562.28" cy="148.64" r="8.91"/><circle class="cls-1" cx="530.39" cy="108.9" r="14.94"/><circle class="cls-1" cx="550.17" cy="181.4" r="14.94"/><circle class="cls-1" cx="58.52" cy="164.79" r="5.05"/><circle class="cls-1" cx="80.16" cy="145.68" r="8.46"/><circle class="cls-1" cx="39.66" cy="158.8" r="8.46"/><circle class="cls-1" cx="126.11" cy="69.64" r="21.16"/><circle class="cls-1" cx="248.09" cy="177.02" r="12.21"/><circle class="cls-1" cx="337.96" cy="235.39" r="12.21"/></svg>