<svg xmlns="http://www.w3.org/2000/svg" width="1920.001" height="384.516" viewBox="0 0 1920.001 384.516"><g transform="translate(0.001 -695.48)"><path d="M-2433,828H-4353V496.486a166.488,166.488,0,0,0,14.289,16.507c5.767,6.013,12.239,12.221,19.239,18.451,8.745,7.784,18.343,15.625,28.526,23.306,25.916,19.546,55.721,38.169,88.589,55.352,19.518,10.2,40.343,20.005,61.9,29.132,23.719,10.043,48.906,19.518,74.862,28.161,8.235,2.743,16.472,5.155,24.482,7.17,7.8,1.962,15.611,3.605,23.225,4.885,7.394,1.243,14.83,2.182,22.1,2.791,7.032.589,14.134.887,21.109.887,57.32,0,104.946-19.821,155.369-40.805,3.151-1.311,7.072-2.944,10.847-4.505,13.065-5.406,27.219-11.164,42.187-16.637,16.106-5.889,30.969-10.637,45.438-14.514a414.071,414.071,0,0,1,50.185-10.265c9.027-1.265,18.226-2.233,27.34-2.877,9.556-.675,19.342-1.017,29.088-1.017,9.414,0,19.074.319,28.712.949,9.981.652,20.252,1.657,30.526,2.989,10.609,1.375,21.541,3.138,32.491,5.24,11.275,2.165,22.919,4.757,34.609,7.7,49.491,12.481,94.761,25,138.541,37.108,29.263,8.093,56.9,15.737,83.609,22.749,29.94,7.862,54.344,13.782,76.8,18.633,54.381,11.745,98.122,17.216,137.653,17.216,38.994,0,74.2-5.385,107.642-16.462,8.725-2.89,17.465-6.224,25.977-9.91,8.634-3.737,17.31-7.956,25.788-12.539,8.583-4.64,17.226-9.8,25.689-15.326,8.559-5.591,17.2-11.737,25.682-18.267,10.753-8.278,22.076-16.327,33.655-23.924,11.078-7.268,22.68-14.314,34.485-20.942a647.692,647.692,0,0,1,69.816-33.733,765.668,765.668,0,0,1,131.476-40.416c18.174-3.889,36.7-7.206,55.071-9.859,14.722-2.127,29.38-3.835,43.565-5.077,24.346-2.132,38.832-2.156,39.437-2.156h.006V828Z" transform="translate(4353 198.996)" fill="#b7ebe9"/><path d="M-2433,828H-4353V496.486a166.488,166.488,0,0,0,14.289,16.507c5.767,6.013,12.239,12.221,19.239,18.451,8.745,7.784,18.343,15.625,28.526,23.306,25.916,19.546,55.721,38.169,88.589,55.352,19.518,10.2,40.343,20.005,61.9,29.132,23.719,10.043,48.906,19.518,74.862,28.161,8.235,2.743,16.472,5.155,24.482,7.17,7.8,1.962,15.611,3.605,23.225,4.885,7.394,1.243,14.83,2.182,22.1,2.791,7.032.589,14.134.887,21.109.887,57.32,0,104.946-19.821,155.369-40.805,3.151-1.311,7.072-2.944,10.847-4.505,13.065-5.406,27.219-11.164,42.187-16.637,16.106-5.889,30.969-10.637,45.438-14.514a414.071,414.071,0,0,1,50.185-10.265c9.027-1.265,18.226-2.233,27.34-2.877,9.556-.675,19.342-1.017,29.088-1.017,9.414,0,19.074.319,28.712.949,9.981.652,20.252,1.657,30.526,2.989,10.609,1.375,21.541,3.138,32.491,5.24,11.275,2.165,22.919,4.757,34.609,7.7,49.491,12.481,94.761,25,138.541,37.108,29.263,8.093,56.9,15.737,83.609,22.749,29.94,7.862,54.344,13.782,76.8,18.633,54.381,11.745,98.122,17.216,137.653,17.216,38.994,0,74.2-5.385,107.642-16.462,8.725-2.89,17.465-6.224,25.977-9.91,8.634-3.737,17.31-7.956,25.788-12.539,8.583-4.64,17.226-9.8,25.689-15.326,8.559-5.591,17.2-11.737,25.682-18.267,10.753-8.278,22.076-16.327,33.655-23.924,11.078-7.268,22.68-14.314,34.485-20.942a647.692,647.692,0,0,1,69.816-33.733,765.668,765.668,0,0,1,131.476-40.416c18.174-3.889,36.7-7.206,55.071-9.859,14.722-2.127,29.38-3.835,43.565-5.077,24.346-2.132,38.832-2.156,39.437-2.156h.006V828Z" transform="translate(4353 251.996)" fill="#fff"/></g></svg>