<svg xmlns="http://www.w3.org/2000/svg" width="1920" height="1133.001" viewBox="0 0 1920 1133.001"><defs><style>.a{fill:#afddeb;}.b{fill:#fff;}</style></defs><path class="a" d="M1624,828H-296V549.487a167.161,167.161,0,0,0,14.275,16.507c5.764,6.016,12.231,12.224,19.22,18.451,8.741,7.787,18.329,15.629,28.5,23.306,25.891,19.546,55.668,38.169,88.5,55.352,19.5,10.2,40.3,20,61.841,29.133C-59.97,702.275-34.807,711.75-8.87,720.4c8.229,2.743,16.458,5.156,24.459,7.17,7.786,1.961,15.592,3.6,23.2,4.885,7.386,1.243,14.815,2.182,22.079,2.791,7.027.589,14.122.888,21.089.888,57.263,0,104.844-19.82,155.219-40.8l.222-.092c3.471-1.446,7.061-2.941,10.618-4.414,13.054-5.407,27.195-11.165,42.146-16.637,16.089-5.889,30.936-10.637,45.391-14.514A413.216,413.216,0,0,1,385.688,649.4c9.017-1.265,18.206-2.232,27.314-2.876,9.548-.675,19.325-1.018,29.06-1.018h.009c9.4,0,19.054.32,28.684.95,9.976.653,20.237,1.658,30.5,2.989,10.6,1.375,21.521,3.138,32.462,5.24,11.273,2.167,22.9,4.759,34.572,7.7,49.433,12.478,94.67,25,138.418,37.11l.041.011c29.237,8.093,56.852,15.737,83.486,22.737,29.906,7.86,54.286,13.781,76.724,18.632,54.326,11.744,98.025,17.214,137.521,17.214,38.95,0,74.126-5.386,107.539-16.464,8.714-2.889,17.447-6.224,25.955-9.91,8.63-3.739,17.3-7.958,25.765-12.539,8.572-4.638,17.206-9.793,25.665-15.324,8.551-5.591,17.183-11.737,25.655-18.265,10.741-8.276,22.054-16.326,33.623-23.924,11.064-7.266,22.656-14.312,34.453-20.942a646.761,646.761,0,0,1,69.749-33.733,764.45,764.45,0,0,1,131.351-40.416c18.155-3.889,36.666-7.206,55.018-9.859,14.709-2.127,29.353-3.835,43.524-5.076,24.323-2.132,38.795-2.156,39.4-2.156h.006V-252H1624V828Z" transform="translate(296.001 252)"/><path class="b" d="M1624,828H-296V549.487a167.161,167.161,0,0,0,14.275,16.507c5.764,6.016,12.231,12.224,19.22,18.451,8.741,7.787,18.329,15.629,28.5,23.306,25.891,19.546,55.668,38.169,88.5,55.352,19.5,10.2,40.3,20,61.841,29.133C-59.97,702.275-34.807,711.75-8.87,720.4c8.229,2.743,16.458,5.156,24.459,7.17,7.786,1.961,15.592,3.6,23.2,4.885,7.386,1.243,14.815,2.182,22.079,2.791,7.027.589,14.122.888,21.089.888,57.263,0,104.844-19.82,155.219-40.8l.222-.092c3.471-1.446,7.061-2.941,10.618-4.414,13.054-5.407,27.195-11.165,42.146-16.637,16.089-5.889,30.936-10.637,45.391-14.514A413.216,413.216,0,0,1,385.688,649.4c9.017-1.265,18.206-2.232,27.314-2.876,9.548-.675,19.325-1.018,29.06-1.018h.009c9.4,0,19.054.32,28.684.95,9.976.653,20.237,1.658,30.5,2.989,10.6,1.375,21.521,3.138,32.462,5.24,11.273,2.167,22.9,4.759,34.572,7.7,49.433,12.478,94.67,25,138.418,37.11l.041.011c29.237,8.093,56.852,15.737,83.486,22.737,29.906,7.86,54.286,13.781,76.724,18.632,54.326,11.744,98.025,17.214,137.521,17.214,38.95,0,74.126-5.386,107.539-16.464,8.714-2.889,17.447-6.224,25.955-9.91,8.63-3.739,17.3-7.958,25.765-12.539,8.572-4.638,17.206-9.793,25.665-15.324,8.551-5.591,17.183-11.737,25.655-18.265,10.741-8.276,22.054-16.326,33.623-23.924,11.064-7.266,22.656-14.312,34.453-20.942a646.761,646.761,0,0,1,69.749-33.733,764.45,764.45,0,0,1,131.351-40.416c18.155-3.889,36.666-7.206,55.018-9.859,14.709-2.127,29.353-3.835,43.524-5.076,24.323-2.132,38.795-2.156,39.4-2.156h.006V-252H1624V828Z" transform="translate(296.001 305)"/></svg>